# xmcd CD database file
#
# Track frame offsets:
#	150
#	14185
#	27097
#	39635
#	50470
#	64405
#	76860
#	88577
#	100172
#	112187
#	124440
#	136430
#	147810
#	160747
#	172807
#	184507
#	196902
#	209457
#	221942
#	234042
#	243507
#	255882
#	267895
#	279442
#	291507
#	305387
#	316825
#
# Disc length: 4385 seconds
#
# Revision: 12
# Processed by: cddbd v1.5.2PL0 Copyright (c) Steve Scherf et al.
# Submitted via: CDex 1.79
#
DISCID=87111f1b
DTITLE=Various Artist - Columbia Country Classics, Vol. 1: The Golden Age
DYEAR=1935
DGENRE=Country
TTITLE0=The Carter Family - Can The Circle Be Unbroken (Bye And Bye)
TTITLE1=Roy Acuff and His Crazy Tennesseans - Great Speckled Bird
TTITLE2=The Chuck Wagon Gang - After The Sunrise
TTITLE3=Gene Autry - You Are My Sunshine
TTITLE4=Patsy Montana and The Prairie Ramblers - I Want To Be A Cowboy's Sweetheart
TTITLE5=Al Dexter and His Troopers - Pistol Packin' Mama
TTITLE6=Gene Autry - Back In The Saddle Again
TTITLE7=Bob Wills and His Texas Playboys - New San Antonio Rose
TTITLE8=Bob Wills and His Texas Playboys - Time Changes Everything
TTITLE9=Gene Autry - It Makes No Difference Now
TTITLE10=Bob Wills and His Texas Playboys - Take Me Back To Tulsa
TTITLE11=Texas Ruby - Don't Let That Man Get You Down
TTITLE12=Spade Cooley - Shame On You
TTITLE13=Ted Daffan's Texans - Born To Lose
TTITLE14=Wiley Walker and Gene Sullivan - When My Blue Moon Turns To Gold Again
TTITLE15=Roy Acuff and His Smokey Mountain Boys - Wreck On The Highway
TTITLE16=Molly O'Day and The Cumberland Mountain Folks - When God Comes And Gathers His Jewels
TTITLE17=Molly O'Day and The Cumberland Mountain Folks - The Tramp On The Street
TTITLE18=Roy Acuff and His Smokey Mountain Boys - I Saw The Light
TTITLE19=Wilma Lee and Stoney Cooper with the Clinch Mountain Clan - Are You Walking And A-Talking For The Lord
TTITLE20=Bill Monroe and His Bluegrass Boys - Molly And Tenbrooks
TTITLE21=Molly O'Day and The Cumberland Mountain Folks - Poor Ellen Smith
TTITLE22=Roy Acuff and His Smokey Mountain Boys - Wabash Cannonball
TTITLE23=Roy Acuff and His Smokey Mountain Boys - Blue Eyes Crying In The Rain
TTITLE24=Bill Monroe and His Bluegrass Boys - Blue Moon Of Kentucky
TTITLE25=The Stanley Brothers and The Clinch Mountain Boys - The Fields Have Turned Brown
TTITLE26=Lester Flatt, Earl Scruggs and The Foggy Mountain Boys - Don't Get Above Your Raising
EXTD=
EXTT0=
EXTT1=
EXTT2=
EXTT3=
EXTT4=
EXTT5=
EXTT6=
EXTT7=
EXTT8=
EXTT9=
EXTT10=
EXTT11=
EXTT12=
EXTT13=
EXTT14=
EXTT15=
EXTT16=
EXTT17=
EXTT18=
EXTT19=
EXTT20=
EXTT21=
EXTT22=
EXTT23=
EXTT24=
EXTT25=
EXTT26=
PLAYORDER=
